<?xml version="1.0" encoding="utf-8"?>
<!-- Generator: Adobe Illustrator 27.8.1, SVG Export Plug-In . SVG Version: 6.00 Build 0)  -->
<svg version="1.1" id="Layer_1" xmlns="http://www.w3.org/2000/svg" xmlns:xlink="http://www.w3.org/1999/xlink" x="0px" y="0px"
	 viewBox="0 0 1280 640" style="enable-background:new 0 0 1280 640;" xml:space="preserve">
<style type="text/css">
	.st0{opacity:0.25;enable-background:new    ;}
	.st1{fill:url(#SVGID_1_);}
	.st2{fill:url(#SVGID_00000152953891057672899570000010218745323335550137_);}
	.st3{fill:url(#SVGID_00000014592265053440507370000006691315216772992129_);}
	.st4{fill:url(#SVGID_00000093864289200009586750000015586344641817758339_);}
	.st5{fill:url(#SVGID_00000121967497728791016980000005717105751407394689_);}
	.st6{fill:url(#SVGID_00000081612969796132103080000015831858502795427969_);}
	.st7{fill:url(#SVGID_00000092414920212832607680000005678224710442616227_);}
	.st8{fill:url(#SVGID_00000068652602996003576130000000351778774514733195_);}
</style>
<g>
	<path class="st0" d="M302.3,300.5c-6.9-4.6-21-4.5-33-2.1c-12,2.2-21.8,6.5-21.8,6.5c0,0.1,5.1,7.7,10.8,16.9
		c5.8,9.1,12.1,19.6,17.9,23.5c11.7,7.4,26.2,3.2,34-6.4c0,0,4.6,3.6,8,5.2c0.9,0.4,1.9,0.6,2.7,0.8c0.4,0.1,0.8,0.1,1.2,0.1
		c0.4,0,0.9-0.1,1.4-0.6l0,0c0.2-0.3,0.4-0.6,0.4-1c0.1-0.5-0.1-0.9-0.2-1.3c-0.2-0.4-0.4-0.7-0.7-1.1c-0.5-0.7-1.1-1.3-1.7-1.9
		c-2.1-2-8.2-6.1-8.2-6.1C317.1,321.9,313.9,307.9,302.3,300.5z M307,330.3c1.9,1.3,3.8,2.8,5.7,4.3c4.1,3.1,9,6.1,7.8,7
		c-1.7,1.5-7.1-2.6-9.4-4.3c-2.1-1.6-4.2-3.1-6.2-4.6c-7.8,5.4-16.3,6.7-24.7,5.4c8.8,0.5,16.4-2.3,22.4-7.2
		c-5.9-4.3-11.5-8-17.7-11.5c-5.6,3.9-11.7,5.2-17.8,4.2c6.3,0.3,11.8-1.6,16-5.2c-9-4.8-19.2-9-32.9-13c13.4,2.9,24,6.2,34.1,11
		c0.6-5.3-0.8-10.8-4.4-15.7c4,4.4,6.2,10.1,6.1,16.6c6.1,3,12.1,6.6,18.4,11c1-7.9-0.9-15.9-6.2-23.2
		C304.2,311.9,307.7,319.9,307,330.3z"/>
	<path class="st0" d="M1051.6,352.4l23.6,44.6h-32.6l-11.8-22.6c-19.4-3.3-67.6,0.3-99,22.6h-31.2l61.9-116.1l15.5,29.4l-26,50
		C980.1,345.6,1020.6,343.8,1051.6,352.4L1051.6,352.4z M1007.7,330.5L963.3,246l-1.1-2h32.1l46.9,88.6
		C1029.1,330.6,1017.9,330,1007.7,330.5L1007.7,330.5z"/>
	<path class="st0" d="M780.5,366.3h96V397H750.4v-71.1c22.5-17.7,40.2-23.1,78-23.1h22.4v30.4h-22.4c-7.1,0-13,0.2-17.6,0.5
		c-4.6,0.3-8.6,0.7-12,1.3c-3.3,0.6-6.4,1.5-9.1,2.7c-2.8,1.2-5.9,2.7-9.2,4.4V366.3z M750.4,274.4V244h120.5v30.4h-90.4H750.4z"/>
	<path class="st0" d="M1135,397h-30.1v-68.8c17.7-18,40.2-25.4,78-25.4h16.6v30.4h-16.6c-19.5,0-30.5-0.3-47.8,8.9V397z
		 M1104.9,274.4V244h114.6v30.4H1135H1104.9z"/>
	<path class="st0" d="M536.6,376.5c-7.9,6.8-17,12-27.2,15.4c-10.1,3.4-20.8,5.1-31.9,5.1c-10.9,0-21.5-1.7-31.6-5.1
		c-10.2-3.5-19.2-8.4-27.1-15c-7.9-6.5-14.2-14.6-18.9-24.1c-4.7-9.5-7.1-20.4-7.1-32.6c0-12.2,2.4-23,7.2-32.5
		c4.9-9.4,11.2-17.4,19.2-23.8c7.9-6.5,17-11.4,27.2-14.7c10.1-3.4,20.6-5,31.4-5c10.5,0,20.8,1.6,30.8,4.6c10,3.1,19,7.6,26.9,13.5
		l-19.1,22.2c-5.4-3.7-11.5-6.5-18.2-8.5c-6.8-1.9-13.5-2.9-20.4-2.9c-7.1,0-13.8,1-20.3,2.9c-6.5,2-12.3,4.9-17.5,8.8
		c-5.2,3.9-9.4,8.8-12.4,14.8c-3.1,6.1-4.6,13.1-4.6,21.2c0,8.2,1.6,15.2,4.7,21.2c3.1,5.9,7.3,10.8,12.5,14.7
		c5.2,3.9,11.1,6.8,17.6,8.7c14,4.2,44.8,3.9,50.4-11.2h28.3V376.5z M508.2,337.6h-14.7l-12.2-27h55.2v27H508.2z"/>
	<path class="st0" d="M59.5,397v-30.7H91h26.2h55V397H59.5z M59.5,348.8V244H91v104.8H59.5z"/>
	<path class="st0" d="M345.2,319.5c0-7.9-1.7-14.8-4.7-20.7c-3.2-5.8-7.3-10.6-12.5-14.4c-5.2-3.8-11-6.6-17.5-8.3
		c-6.6-1.7-13.3-2.7-20.1-2.7c-7,0-13.8,0.9-20.4,2.8c-6.5,1.8-12.4,4.7-17.4,8.6c-5.1,3.9-9.2,8.8-12.3,14.7
		c-3.1,6-4.7,13-4.7,21.2c0,8.1,1.6,15.2,4.7,21.1s7.2,10.9,12.4,14.7c5.2,3.9,11,6.8,17.6,8.6c6.5,1.9,13.3,2.8,20.4,2.8
		c6.8,0,13.5-1.1,19.9-3.2c6.5-2.1,12.3-5.2,17.5-9.3c5.2-4.1,9.3-9.1,12.5-15.2C343.5,334.2,345.2,327.3,345.2,319.5L345.2,319.5z
		 M375.4,319.3c0,12.2-2.4,23.1-7.2,32.7c-4.8,9.7-11.2,17.8-19,24.5c-7.9,6.7-16.9,11.8-27.2,15.3c-10.3,3.5-20.9,5.3-31.9,5.3
		c-10.9,0-21.6-1.7-31.7-5.1c-10.2-3.4-19.3-8.4-27.1-15c-7.9-6.5-14.2-14.6-19-24.1c-4.7-9.5-7.1-20.4-7.1-32.6
		c0-12.3,2.4-23,7.2-32.6c4.8-9.4,11.2-17.4,19.2-23.8c7.9-6.5,17.1-11.4,27.3-14.7c10.1-3.4,20.7-5,31.4-5
		c10.8,0,21.3,1.6,31.6,4.7c10.3,3.1,19.4,7.9,27.2,14.2c7.9,6.3,14.2,14.2,19,23.6C373,295.9,375.4,306.9,375.4,319.3L375.4,319.3z
		"/>
	<path class="st0" d="M582.7,397v-30.7h31.5h26.2h55V397H582.7z M582.7,348.8V244h31.5v104.8H582.7z"/>
	<linearGradient id="SVGID_1_" gradientUnits="userSpaceOnUse" x1="957.0131" y1="428.0416" x2="1046.7129" y2="272.677">
		<stop  offset="2.237672e-07" style="stop-color:#02CA77"/>
		<stop  offset="1" style="stop-color:#007044"/>
	</linearGradient>
	<path class="st1" d="M1052.6,351.4l23.6,44.6h-32.6l-11.8-22.6c-19.4-3.3-67.6,0.3-99,22.6h-31.2l61.9-116.1l15.5,29.4l-26,50
		C981.1,344.6,1021.6,342.8,1052.6,351.4L1052.6,351.4z M1008.7,329.5L964.3,245l-1.1-2h32.1l46.9,88.6
		C1030.1,329.6,1018.9,329,1008.7,329.5L1008.7,329.5z"/>
	
		<linearGradient id="SVGID_00000041258272132862982690000003493702855898050202_" gradientUnits="userSpaceOnUse" x1="765.5309" y1="404.1866" x2="861.9176" y2="237.2401">
		<stop  offset="2.237672e-07" style="stop-color:#02CA77"/>
		<stop  offset="1" style="stop-color:#007044"/>
	</linearGradient>
	<path style="fill:url(#SVGID_00000041258272132862982690000003493702855898050202_);" d="M781.5,365.3h96V396H751.4v-71.1
		c22.5-17.7,40.2-23.1,78-23.1h22.4v30.4h-22.4c-7.1,0-13,0.2-17.6,0.5c-4.6,0.3-8.6,0.7-12,1.3c-3.3,0.6-6.4,1.5-9.1,2.7
		c-2.8,1.2-5.9,2.7-9.2,4.4V365.3z M751.4,273.4V243h120.5v30.4h-90.4H751.4z"/>
	
		<linearGradient id="SVGID_00000114032290207159744250000009756234623243810203_" gradientUnits="userSpaceOnUse" x1="1094.396" y1="389.3623" x2="1189.2977" y2="224.9875">
		<stop  offset="2.237672e-07" style="stop-color:#02CA77"/>
		<stop  offset="1" style="stop-color:#007044"/>
	</linearGradient>
	<path style="fill:url(#SVGID_00000114032290207159744250000009756234623243810203_);" d="M1136,396h-30.1v-68.8
		c17.7-18,40.2-25.4,78-25.4h16.6v30.4h-16.6c-19.5,0-30.5-0.3-47.8,8.9V396z M1105.9,273.4V243h114.6v30.4H1136H1105.9z"/>
	
		<linearGradient id="SVGID_00000129888018835644224950000012050850688136221845_" gradientUnits="userSpaceOnUse" x1="436.7914" y1="387.1266" x2="516.5837" y2="248.9223">
		<stop  offset="2.237672e-07" style="stop-color:#02CA77"/>
		<stop  offset="1" style="stop-color:#007044"/>
	</linearGradient>
	<path style="fill:url(#SVGID_00000129888018835644224950000012050850688136221845_);" d="M537.6,375.5c-7.9,6.8-17,12-27.2,15.4
		c-10.1,3.4-20.8,5.1-31.9,5.1c-10.9,0-21.5-1.7-31.6-5.1c-10.2-3.5-19.2-8.4-27.1-15c-7.9-6.5-14.2-14.6-18.9-24.1
		c-4.7-9.5-7.1-20.4-7.1-32.6c0-12.2,2.4-23,7.2-32.5c4.9-9.4,11.2-17.4,19.2-23.8c7.9-6.5,17-11.4,27.2-14.7
		c10.1-3.4,20.6-5,31.4-5c10.5,0,20.8,1.6,30.8,4.6c10,3.1,19,7.6,26.9,13.5l-19.1,22.2c-5.4-3.7-11.5-6.5-18.2-8.5
		c-6.8-1.9-13.5-2.9-20.4-2.9c-7.1,0-13.8,1-20.3,2.9c-6.5,2-12.3,4.9-17.5,8.8c-5.2,3.9-9.4,8.8-12.4,14.8
		c-3.1,6.1-4.6,13.1-4.6,21.2c0,8.2,1.6,15.2,4.7,21.2c3.1,5.9,7.3,10.8,12.5,14.7c5.2,3.9,11.1,6.8,17.6,8.7
		c14,4.2,44.8,3.9,50.4-11.2h28.3V375.5z M509.2,336.6h-14.7l-12.2-27h55.2v27H509.2z"/>
	
		<linearGradient id="SVGID_00000008854088739481685700000018061039472863702716_" gradientUnits="userSpaceOnUse" x1="69.6646" y1="401.2889" x2="143.7998" y2="272.883">
		<stop  offset="2.237672e-07" style="stop-color:#02CA77"/>
		<stop  offset="1" style="stop-color:#007044"/>
	</linearGradient>
	<path style="fill:url(#SVGID_00000008854088739481685700000018061039472863702716_);" d="M60.5,396v-30.7H92h26.2h55V396H60.5z
		 M60.5,347.8V243H92v104.8H60.5z"/>
	
		<linearGradient id="SVGID_00000028305530498477405830000014287688712186322367_" gradientUnits="userSpaceOnUse" x1="251.2006" y1="388.2481" x2="331.088" y2="249.8791">
		<stop  offset="2.237672e-07" style="stop-color:#02CA77"/>
		<stop  offset="1" style="stop-color:#007044"/>
	</linearGradient>
	<path style="fill:url(#SVGID_00000028305530498477405830000014287688712186322367_);" d="M346.2,318.5c0-7.9-1.7-14.8-4.7-20.7
		c-3.2-5.8-7.3-10.6-12.5-14.4c-5.2-3.8-11-6.6-17.5-8.3c-6.6-1.7-13.3-2.7-20.1-2.7c-7,0-13.8,0.9-20.4,2.8
		c-6.5,1.8-12.4,4.7-17.4,8.6c-5.1,3.9-9.2,8.8-12.3,14.7c-3.1,6-4.7,13-4.7,21.2c0,8.1,1.6,15.2,4.7,21.1s7.2,10.9,12.4,14.7
		c5.2,3.9,11,6.8,17.6,8.6c6.5,1.9,13.3,2.8,20.4,2.8c6.8,0,13.5-1.1,19.9-3.2c6.5-2.1,12.3-5.2,17.5-9.3c5.2-4.1,9.3-9.1,12.5-15.2
		C344.5,333.2,346.2,326.3,346.2,318.5L346.2,318.5z M376.4,318.3c0,12.2-2.4,23.1-7.2,32.7c-4.8,9.7-11.2,17.8-19,24.5
		c-7.9,6.7-16.9,11.8-27.2,15.3c-10.3,3.5-20.9,5.3-31.9,5.3c-10.9,0-21.6-1.7-31.7-5.1c-10.2-3.4-19.3-8.4-27.1-15
		c-7.9-6.5-14.2-14.6-19-24.1c-4.7-9.5-7.1-20.4-7.1-32.6c0-12.3,2.4-23,7.2-32.6c4.8-9.4,11.2-17.4,19.2-23.8
		c7.9-6.5,17.1-11.4,27.3-14.7c10.1-3.4,20.7-5,31.4-5c10.8,0,21.3,1.6,31.6,4.7c10.3,3.1,19.4,7.9,27.2,14.2
		c7.9,6.3,14.2,14.2,19,23.6C374,294.9,376.4,305.9,376.4,318.3L376.4,318.3z"/>
	
		<linearGradient id="SVGID_00000167363794058707367220000005100273031431725470_" gradientUnits="userSpaceOnUse" x1="592.8191" y1="401.2889" x2="666.9543" y2="272.883">
		<stop  offset="2.237672e-07" style="stop-color:#02CA77"/>
		<stop  offset="1" style="stop-color:#007044"/>
	</linearGradient>
	<path style="fill:url(#SVGID_00000167363794058707367220000005100273031431725470_);" d="M583.7,396v-30.7h31.5h26.2h55V396H583.7z
		 M583.7,347.8V243h31.5v104.8H583.7z"/>
	
		<linearGradient id="SVGID_00000080888219925536636340000001399178195673151636_" gradientUnits="userSpaceOnUse" x1="296.5342" y1="331.2805" x2="334.9732" y2="295.9315" gradientTransform="matrix(0.6769 -0.7361 0.7361 0.6769 -157.7314 342.0003)">
		<stop  offset="2.237672e-07" style="stop-color:#02CA77"/>
		<stop  offset="1" style="stop-color:#007044"/>
	</linearGradient>
	<path style="fill:url(#SVGID_00000080888219925536636340000001399178195673151636_);" d="M303.3,299.5c-6.9-4.6-21-4.5-33-2.1
		c-12,2.2-21.8,6.5-21.8,6.5c0,0.1,5.1,7.7,10.8,16.9c5.8,9.1,12.1,19.6,17.9,23.5c11.7,7.4,26.2,3.2,34-6.4c0,0,4.6,3.6,8,5.2
		c0.9,0.4,1.9,0.6,2.7,0.8c0.4,0.1,0.8,0.1,1.2,0.1c0.4,0,0.9-0.1,1.4-0.6l0,0c0.2-0.3,0.4-0.6,0.4-1c0.1-0.5-0.1-0.9-0.2-1.3
		c-0.2-0.4-0.4-0.7-0.7-1.1c-0.5-0.7-1.1-1.3-1.7-1.9c-2.1-2-8.2-6.1-8.2-6.1C318.1,320.9,314.9,306.9,303.3,299.5z M308,329.3
		c1.9,1.3,3.8,2.8,5.7,4.3c4.1,3.1,9,6.1,7.8,7c-1.7,1.5-7.1-2.6-9.4-4.3c-2.1-1.6-4.2-3.1-6.2-4.6c-7.8,5.4-16.3,6.7-24.7,5.4
		c8.8,0.5,16.4-2.3,22.4-7.2c-5.9-4.3-11.5-8-17.7-11.5c-5.6,3.9-11.7,5.2-17.8,4.2c6.3,0.3,11.8-1.6,16-5.2c-9-4.8-19.2-9-32.9-13
		c13.4,2.9,24,6.2,34.1,11c0.6-5.3-0.8-10.8-4.4-15.7c4,4.4,6.2,10.1,6.1,16.6c6.1,3,12.1,6.6,18.4,11c1-7.9-0.9-15.9-6.2-23.2
		C305.2,310.9,308.7,318.9,308,329.3z"/>
</g>
</svg>
