<?xml version="1.0" encoding="utf-8"?>
<!-- Generator: Adobe Illustrator 27.7.0, SVG Export Plug-In . SVG Version: 6.00 Build 0)  -->
<svg version="1.1" id="Layer_1" xmlns="http://www.w3.org/2000/svg" xmlns:xlink="http://www.w3.org/1999/xlink" x="0px" y="0px"
	 viewBox="0 0 1280 640" style="enable-background:new 0 0 1280 640;" xml:space="preserve">
<style type="text/css">
	.st0{opacity:0.25;}
	.st1{fill:url(#SVGID_1_);}
	.st2{fill:url(#SVGID_00000082329836477771055480000012950980654192614058_);}
	.st3{fill:url(#SVGID_00000161619193820823898760000002417168087799031460_);}
	.st4{fill:url(#SVGID_00000134222068644452065670000011158259956677685393_);}
	.st5{fill:url(#SVGID_00000142855600117368921080000014109367617071983239_);}
	.st6{fill:url(#SVGID_00000011022850862362141590000016882721041014929815_);}
	.st7{fill:url(#SVGID_00000105419980807264438340000000372127464555920034_);}
</style>
<path class="st0" d="M608,247.1h-6.5v129.7c0,13,10.5,23.5,23.5,23.5H700v-4.9c0-13-10.5-23.5-23.5-23.5h-44.9V270.6
	C631.5,257.6,621,247.1,608,247.1z"/>
<path class="st0" d="M323.4,400.3c44.2,0,76.3-32.2,76.3-76.5c0-44.5-32.1-76.7-76.3-76.7c-44.3,0-76.5,32.3-76.5,76.7
	C246.9,368.2,279.1,400.3,323.4,400.3z M323.4,272.8c23.3,0,48.4,15.9,48.4,50.8c0,34.7-25.1,50.5-48.4,50.5
	c-23.4,0-48.6-15.8-48.6-50.5C274.8,288.7,300,272.8,323.4,272.8z"/>
<path class="st0" d="M567.9,331.6v1.6h-34.4c-12.6,0-22.8-10.3-22.8-22.8v-1.6h34.4C557.7,308.7,567.9,319,567.9,331.6z
	 M433.1,321.5c0,44.1,31.8,77.2,75.7,78.8h27c12.6,0,22.8-10.2,22.8-22.8v-5.8l-49.9,0c-22.1-1.6-45.7-17.9-45.7-50.2
	c0-33.6,22.8-50.2,45.3-51.7l23,0c12.6,0,22.8-10.2,22.8-22.8V242h-45.8C464.9,243.5,433.1,277,433.1,321.5z M510.7,308.7
	L510.7,308.7L510.7,308.7z"/>
<path class="st0" d="M951.2,246.9c-13.6,0-26,8.6-30.9,21.3l-49.7,131.9h8.1c13.9,0,26.4-8.8,31.1-21.9c5.5-15.4,6.7-18.6,8.1-22.5
	c2.3-6.3,5.2-14.3,26-73l2.5-7.2l11.5,33.1c16,46.2,20.1,57.9,24.2,69.5c4.7,13.2,17.1,22,31.1,22h9.5l-57.1-153.3H951.2z"/>
<path class="st0" d="M1078.1,248.4h72.7v4c0,12.6-10.2,22.8-22.8,22.8h-72.7v-4C1055.3,258.7,1065.5,248.4,1078.1,248.4z
	 M1084.2,377.5v-36.4h35.8c12.6,0,22.8-10.3,22.8-22.8v-2.7h-64c-13,0-23.5,10.5-23.5,23.5v61.3h6
	C1073.9,400.4,1084.2,390.1,1084.2,377.5z"/>
<path class="st0" d="M759.8,247.1h76.9v4.5c0,13-10.5,23.5-23.5,23.5h-76.9v-4.5C736.3,257.6,746.8,247.1,759.8,247.1z M736.3,275.1
	L736.3,275.1L736.3,275.1z M830.7,312.8v-2.2h-70.9c-13,0-23.5,10.5-23.5,23.5v2.2h70.9C820.1,336.4,830.7,325.8,830.7,312.8z
	 M836.9,400.3L836.9,400.3l0,2.7L836.9,400.3z M736.3,336.4L736.3,336.4 M759.8,400.3h77.2v-4.7c0-13-10.5-23.5-23.5-23.5h-77.2v4.7
	C736.3,389.8,746.8,400.3,759.8,400.3z"/>
<path class="st0" d="M130.7,247.1h-6.5v129.7c0,13,10.5,23.5,23.5,23.5h74.9v-4.9c0-13-10.5-23.5-23.5-23.5h-44.9V270.6
	C154.2,257.6,143.6,247.1,130.7,247.1z"/>
<linearGradient id="SVGID_1_" gradientUnits="userSpaceOnUse" x1="652.7584" y1="398.3282" x2="652.7584" y2="245.0754">
	<stop  offset="2.237672e-07" style="stop-color:#02CA77"/>
	<stop  offset="1" style="stop-color:#007044"/>
</linearGradient>
<path class="st1" d="M610,245.1h-6.5v129.7c0,13,10.5,23.5,23.5,23.5H702v-4.9c0-13-10.5-23.5-23.5-23.5h-44.9V268.6
	C633.5,255.6,623,245.1,610,245.1z"/>
<linearGradient id="SVGID_00000146488964436358702450000011154866667878558858_" gradientUnits="userSpaceOnUse" x1="325.3002" y1="398.3308" x2="325.3002" y2="245.0727">
	<stop  offset="2.237672e-07" style="stop-color:#02CA77"/>
	<stop  offset="1" style="stop-color:#007044"/>
</linearGradient>
<path style="fill:url(#SVGID_00000146488964436358702450000011154866667878558858_);" d="M325.4,398.3c44.2,0,76.3-32.2,76.3-76.5
	c0-44.5-32.1-76.7-76.3-76.7c-44.3,0-76.5,32.3-76.5,76.7C248.9,366.1,281.1,398.3,325.4,398.3z M325.4,270.8
	c23.3,0,48.4,15.9,48.4,50.8c0,34.7-25.1,50.5-48.4,50.5c-23.4,0-48.6-15.8-48.6-50.5C276.8,286.7,302,270.8,325.4,270.8z"/>
<linearGradient id="SVGID_00000142878425617779840240000010059810585435774854_" gradientUnits="userSpaceOnUse" x1="502.5367" y1="398.3308" x2="502.5367" y2="239.9996">
	<stop  offset="2.237672e-07" style="stop-color:#02CA77"/>
	<stop  offset="1" style="stop-color:#007044"/>
</linearGradient>
<path style="fill:url(#SVGID_00000142878425617779840240000010059810585435774854_);" d="M569.9,329.6v1.6h-34.4
	c-12.6,0-22.8-10.3-22.8-22.8v-1.6h34.4C559.7,306.7,569.9,317,569.9,329.6z M435.1,319.5c0,44.1,31.8,77.2,75.7,78.8h27
	c12.6,0,22.8-10.2,22.8-22.8v-5.8l-49.9,0c-22.1-1.6-45.7-17.9-45.7-50.2c0-33.6,22.8-50.2,45.3-51.7l23,0
	c12.6,0,22.8-10.2,22.8-22.8V240h-45.8C466.9,241.5,435.1,275,435.1,319.5z M512.7,306.7L512.7,306.7L512.7,306.7z"/>
<linearGradient id="SVGID_00000038383118880975662030000001470871398174148506_" gradientUnits="userSpaceOnUse" x1="948.7084" y1="398.1038" x2="948.7084" y2="244.8509">
	<stop  offset="2.237672e-07" style="stop-color:#02CA77"/>
	<stop  offset="1" style="stop-color:#007044"/>
</linearGradient>
<path style="fill:url(#SVGID_00000038383118880975662030000001470871398174148506_);" d="M953.2,244.9c-13.6,0-26,8.6-30.9,21.3
	l-49.7,131.9h8.1c13.9,0,26.4-8.8,31.1-21.9c5.5-15.4,6.7-18.6,8.1-22.5c2.3-6.3,5.2-14.3,26-73l2.5-7.2l11.5,33.1
	c16,46.2,20.1,57.9,24.2,69.5c4.7,13.2,17.1,22,31.1,22h9.5l-57.1-153.3H953.2z"/>
<linearGradient id="SVGID_00000109737768027160447740000001188157316521739655_" gradientUnits="userSpaceOnUse" x1="1105.0386" y1="398.3552" x2="1105.0386" y2="246.4384">
	<stop  offset="2.237672e-07" style="stop-color:#02CA77"/>
	<stop  offset="1" style="stop-color:#007044"/>
</linearGradient>
<path style="fill:url(#SVGID_00000109737768027160447740000001188157316521739655_);" d="M1080.1,246.4h72.7v4
	c0,12.6-10.2,22.8-22.8,22.8h-72.7v-4C1057.3,256.7,1067.5,246.4,1080.1,246.4z M1086.2,375.5v-36.4h35.8
	c12.6,0,22.8-10.3,22.8-22.8v-2.7h-64c-13,0-23.5,10.5-23.5,23.5v61.3h6C1075.9,398.4,1086.2,388.1,1086.2,375.5z"/>
<linearGradient id="SVGID_00000033366430484995508130000006521992200660132533_" gradientUnits="userSpaceOnUse" x1="788.596" y1="401.0005" x2="788.596" y2="245.0754">
	<stop  offset="2.237672e-07" style="stop-color:#02CA77"/>
	<stop  offset="1" style="stop-color:#007044"/>
</linearGradient>
<path style="fill:url(#SVGID_00000033366430484995508130000006521992200660132533_);" d="M761.8,245.1h76.9v4.5
	c0,13-10.5,23.5-23.5,23.5h-76.9v-4.5C738.3,255.6,748.8,245.1,761.8,245.1z M738.3,273.1L738.3,273.1L738.3,273.1z M832.7,310.8
	v-2.2h-70.9c-13,0-23.5,10.5-23.5,23.5v2.2h70.9C822.1,334.4,832.7,323.8,832.7,310.8z M838.9,398.3L838.9,398.3l0,2.7L838.9,398.3z
	 M738.3,334.4L738.3,334.4 M761.8,398.3h77.2v-4.7c0-13-10.5-23.5-23.5-23.5h-77.2v4.7C738.3,387.8,748.8,398.3,761.8,398.3z"/>
<linearGradient id="SVGID_00000120525886758909294900000002662493891361060505_" gradientUnits="userSpaceOnUse" x1="175.4124" y1="398.3282" x2="175.4124" y2="245.0754">
	<stop  offset="2.237672e-07" style="stop-color:#02CA77"/>
	<stop  offset="1" style="stop-color:#007044"/>
</linearGradient>
<path style="fill:url(#SVGID_00000120525886758909294900000002662493891361060505_);" d="M132.7,245.1h-6.5v129.7
	c0,13,10.5,23.5,23.5,23.5h74.9v-4.9c0-13-10.5-23.5-23.5-23.5h-44.9V268.6C156.2,255.6,145.6,245.1,132.7,245.1z"/>
</svg>
